<?xml version="1.0" encoding="utf-8"?>
<!-- Generator: Adobe Illustrator 18.0.0, SVG Export Plug-In . SVG Version: 6.00 Build 0)  -->
<!DOCTYPE svg PUBLIC "-//W3C//DTD SVG 1.1//EN" "http://www.w3.org/Graphics/SVG/1.1/DTD/svg11.dtd">
<svg version="1.1" id="Layer_1" xmlns="http://www.w3.org/2000/svg" xmlns:xlink="http://www.w3.org/1999/xlink" x="0px" y="0px"
	 viewBox="0 0 1036 1048" enable-background="new 0 0 1036 1048" xml:space="preserve">
<g>
	<polygon fill-rule="evenodd" clip-rule="evenodd" fill="#FFCB05" points="192.4,163.8 193.7,161.2 197.5,154.3 201.5,147.6 
		205.7,141.1 210.1,134.8 214.7,128.8 219.6,122.9 224.6,117.3 229.8,111.8 235.2,106.6 240.8,101.6 246.5,96.8 252.4,92.1 
		258.5,87.7 264.7,83.6 271.1,79.6 281.7,73.6 293,68.9 298.8,66.6 305.1,64.3 311.5,62.2 318.1,60.3 324.8,58.5 331.7,56.9 
		338.8,55.6 345.9,54.4 353.2,53.5 360.6,52.9 368.2,52.6 375.7,52.6 383.3,52.8 391,53.4 398.7,54.3 399.3,54.4 401.7,52.7 
		408.2,48.3 414.8,44.2 421.6,40.4 428.4,36.9 435.3,33.7 442.3,30.8 449.4,28.1 456.5,25.7 463.8,23.6 471,21.7 478.3,20.1 
		485.7,18.8 493.1,17.7 500.6,16.9 508.1,16.4 520.3,16 532.5,17 539.1,17.8 545.3,18.6 551.9,19.8 558.7,21.1 565.5,22.6 
		572.3,24.4 579.2,26.5 586,28.8 592.9,31.4 599.8,34.4 606.6,37.5 613.3,41 620,44.8 626.5,48.9 632.9,53.3 633.3,53.6 636.2,53.2 
		644,52.3 651.8,51.8 659.5,51.6 667.2,51.7 674.8,52 682.4,52.7 689.9,53.6 697.3,54.8 704.7,56.3 712,58 719.2,60 726.4,62.2 
		733.4,64.7 740.4,67.5 747.3,70.5 758.3,75.8 768.7,82.5 774.1,86.2 779.2,89.8 784.6,93.9 790,98.2 795.2,102.7 800.4,107.5 
		805.5,112.5 810.5,117.8 815.4,123.3 820.1,129 824.7,135 829,141.2 833.2,147.7 837,154.3 840.7,161.2 840.9,161.7 843.7,162.6 
		851,165.5 858.1,168.7 865,172.1 871.8,175.7 878.4,179.6 884.8,183.7 891,188 897,192.5 902.9,197.2 908.5,202.1 914,207.2 
		919.3,212.6 924.4,218.1 929.3,223.8 934,229.6 941.3,239.4 947.3,250.1 950.4,255.9 953.2,261.5 956.1,267.6 958.9,273.9 
		961.4,280.4 963.8,287 966,293.8 968,300.9 969.8,308 971.3,315.3 972.5,322.7 973.5,330.2 974.1,337.9 974.5,345.5 974.5,353.3 
		974.5,353.8 976.5,356 981.6,361.9 986.5,368 991,374.3 995.3,380.6 999.3,387.1 1003.1,393.7 1006.6,400.4 1009.9,407.2 
		1012.8,414.1 1015.6,421.1 1018,428.2 1020.2,435.3 1022.2,442.6 1023.9,449.9 1025.3,457.3 1027.2,469.3 1027.6,481.6 
		1027.7,487.8 1027.6,494.5 1027.3,501.2 1026.7,508.1 1026,515 1025,522 1023.8,529 1022.3,536.1 1020.6,543.3 1018.5,550.4 
		1016.2,557.6 1013.5,564.7 1010.6,571.7 1007.3,578.7 1003.8,585.6 1003.5,586.1 1004.2,588.9 1006,596.6 1007.5,604.2 
		1008.6,611.8 1009.5,619.5 1010,627.1 1010.3,634.7 1010.3,642.2 1010,649.7 1009.4,657.2 1008.6,664.7 1007.5,672.1 1006.1,679.5 
		1004.5,686.8 1002.6,694 1000.4,701.3 996.5,712.8 991.1,723.9 988.1,729.7 985.1,735.2 981.7,741.1 978.1,746.9 974.2,752.7 
		970.1,758.4 965.7,764.1 961.1,769.7 956.3,775.2 951.1,780.6 945.7,785.9 940.1,790.9 934.2,795.8 928,800.4 921.7,804.8 
		921.2,805.2 920.6,808 918.6,815.6 916.3,823.1 913.8,830.4 911,837.5 907.9,844.5 904.7,851.4 901.1,858 897.4,864.6 893.4,871 
		889.2,877.2 884.8,883.2 880.1,889.1 875.3,894.8 870.2,900.4 865,905.7 856.1,914.1 846.3,921.5 841.2,925 835.6,928.7 
		829.9,932.3 823.9,935.8 817.9,939.1 811.6,942.3 805.1,945.3 798.4,948.1 791.5,950.7 784.5,953.1 777.2,955.2 769.8,957.1 
		762.4,958.6 754.8,959.9 747.1,960.9 746.5,960.9 744.7,963.2 739.4,969 733.9,974.5 728.3,979.8 722.5,984.8 716.5,989.6 
		710.4,994.2 704.2,998.4 697.8,1002.5 691.3,1006.3 684.7,1009.8 678,1013.1 671.2,1016.2 664.2,1019 657.2,1021.5 650,1023.9 
		638.2,1027.2 626.1,1029.1 619.6,1029.9 613.4,1030.6 606.6,1031.1 599.7,1031.4 592.8,1031.5 585.7,1031.4 578.6,1031 
		571.3,1030.4 564.1,1029.5 556.7,1028.4 549.3,1026.9 541.9,1025.1 534.6,1023 527.3,1020.6 520,1017.9 519.5,1017.7 516.8,1018.8 
		509.4,1021.5 502,1023.8 494.5,1025.9 487.1,1027.7 479.6,1029.1 472.1,1030.3 464.6,1031.2 457.1,1031.8 449.5,1032.2 442,1032.2 
		434.6,1032 427.1,1031.6 419.6,1030.8 412.2,1029.8 404.8,1028.6 392.8,1026 381.2,1022.1 375,1019.8 369.2,1017.5 363,1014.8 
		356.8,1011.9 350.6,1008.7 344.4,1005.3 338.2,1001.7 332.1,997.8 326,993.6 320.1,989.2 314.2,984.4 308.5,979.4 303,974.1 
		297.6,968.6 292.5,962.9 292.1,962.4 289.2,962.2 281.4,961.1 273.7,959.7 266.2,958.1 258.7,956.2 251.4,954 244.2,951.6 
		237.2,948.9 230.2,945.9 223.4,942.7 216.8,939.3 210.2,935.7 203.8,931.8 197.5,927.7 191.4,923.3 185.5,918.7 176,911 167.6,902 
		163.2,897.2 159.1,892.4 154.9,887.1 150.7,881.7 146.7,876 142.7,870.1 139,864 135.4,857.8 132,851.2 128.8,844.5 125.8,837.6 
		123,830.5 120.6,823.3 118.4,815.9 116.5,808.4 116.4,807.8 114,806.2 107.6,801.7 101.4,796.9 95.4,791.9 89.8,786.8 84.3,781.5 
		79.1,776 74.1,770.3 69.3,764.5 64.8,758.5 60.4,752.4 56.3,746.1 52.5,739.6 48.8,733.1 45.4,726.4 42.3,719.6 37.6,708.3 
		34.2,696.5 32.7,690.5 31.2,684 29.9,677.4 28.8,670.6 27.8,663.7 27.1,656.7 26.6,649.5 26.3,642.3 26.3,634.9 26.6,627.5 
		27.2,620 28,612.4 29.2,604.9 30.7,597.3 32.5,589.9 32.7,589.3 31.3,586.7 27.7,579.7 24.5,572.7 21.5,565.5 18.9,558.3 16.5,551 
		14.4,543.7 12.6,536.4 11.1,529 9.9,521.6 8.9,514.2 8.2,506.7 7.8,499.2 7.6,491.7 7.7,484.2 8.1,476.7 9.1,464.5 11.7,452.6 
		13.1,446.5 14.8,440.1 16.7,433.6 18.8,427.1 21.2,420.5 23.8,413.9 26.7,407.4 29.8,400.8 33.3,394.3 37,387.9 40.9,381.5 
		45.2,375.2 49.8,369.1 54.6,363.1 59.7,357.3 60.1,356.9 60.1,353.9 60.2,346.1 60.6,338.3 61.3,330.6 62.3,323 63.6,315.5 
		65.1,308 67,300.7 69,293.5 71.4,286.3 74,279.3 76.8,272.4 79.9,265.5 83.2,258.8 86.8,252.2 90.7,245.7 97.3,235.4 105.1,226 
		109.1,221.4 113.7,216.4 118.4,211.6 123.3,206.8 128.4,202.1 133.8,197.5 139.4,193 145.2,188.7 151.2,184.5 157.5,180.5 
		164,176.7 170.7,173.2 177.6,169.8 184.7,166.8 191.9,164 192.4,163.8 	"/>
	<polygon fill-rule="evenodd" clip-rule="evenodd" fill="#FFFFFF" points="173.1,206.2 178.6,203 184.3,199.9 190.1,197.2 
		196,194.6 202.1,192.3 208.3,190.2 214.2,188.4 214.7,187.2 217.4,181 220.4,175 223.6,169.2 227,163.5 230.5,158 234.3,152.6 
		238.3,147.5 242.4,142.5 246.7,137.6 251.1,133 255.7,128.5 260.5,124.2 265.4,120.1 270.4,116.2 275.6,112.4 281,108.8 
		286.4,105.5 295,100.6 303.9,96.8 309.4,94.7 314.9,92.7 320.5,90.9 326.2,89.2 332,87.7 337.9,86.3 343.9,85.1 350.1,84.2 
		356.3,83.4 362.5,82.9 368.9,82.6 375.3,82.6 381.7,82.8 388.2,83.3 394.7,84 401.1,85.1 407.2,86.3 408.2,85.4 413.4,81.2 
		418.9,77.3 424.4,73.6 430,70.1 435.8,66.9 441.6,63.9 447.5,61.2 453.4,58.7 459.5,56.4 465.6,54.3 471.7,52.5 478,50.9 
		484.2,49.6 490.5,48.4 496.9,47.5 503.2,46.8 509.7,46.4 519.5,46 529.2,46.9 534.9,47.5 540.7,48.3 546.5,49.3 552.4,50.5 
		558.3,51.8 564.1,53.4 570,55.1 575.9,57.1 581.7,59.3 587.5,61.8 593.3,64.5 599,67.4 604.6,70.6 610,74 615.4,77.7 620.6,81.6 
		625.5,85.5 626.7,85.2 633.4,84 640,83 646.6,82.3 653.2,81.8 659.8,81.6 666.3,81.7 672.8,82 679.3,82.6 685.7,83.4 692,84.4 
		698.3,85.6 704.6,87.1 710.7,88.8 716.9,90.7 722.9,92.9 728.9,95.2 734.8,97.8 743.7,102.1 751.8,107.3 756.6,110.6 761.4,114 
		766.1,117.5 770.7,121.3 775.3,125.2 779.8,129.3 784.1,133.6 788.4,138.1 792.6,142.8 796.6,147.6 800.4,152.7 804.1,157.9 
		807.5,163.4 810.8,169 813.9,174.7 816.7,180.6 819.1,186.3 820.4,186.6 826.8,188.6 833.2,190.8 839.4,193.2 845.4,195.9 
		851.3,198.8 857.1,201.9 862.7,205.2 868.1,208.7 873.4,212.3 878.6,216.2 883.6,220.2 888.4,224.4 893.1,228.8 897.6,233.4 
		902,238.1 906.2,243 910.2,248 916.1,255.9 920.9,264.3 923.6,269.4 926.2,274.6 928.7,280 931.1,285.5 933.3,291 935.4,296.7 
		937.3,302.6 939,308.6 940.5,314.6 941.7,320.8 942.8,327.1 943.6,333.4 944.2,339.8 944.4,346.3 944.5,352.8 944.2,359.3 
		943.8,365.5 944.7,366.4 949.5,371.1 954.1,376 958.5,381.1 962.6,386.3 966.5,391.6 970.1,397 973.5,402.5 976.7,408.1 
		979.7,413.8 982.5,419.6 985.1,425.5 987.4,431.5 989.5,437.5 991.4,443.7 993.1,449.9 994.5,456.1 995.7,462.4 997.3,472.2 
		997.6,481.9 997.6,487.7 997.5,493.5 997.3,499.4 996.8,505.4 996.2,511.3 995.4,517.3 994.3,523.4 993.1,529.5 991.6,535.5 
		989.8,541.6 987.8,547.6 985.6,553.6 983.1,559.6 980.4,565.4 977.4,571.2 974.2,576.8 970.8,582.1 971.3,583.3 973.3,589.8 
		975.1,596.2 976.6,602.7 977.9,609.2 978.8,615.7 979.5,622.2 980,628.7 980.2,635.2 980.2,641.6 980,648 979.5,654.5 978.8,660.8 
		977.9,667.2 976.7,673.5 975.3,679.7 973.7,685.9 971.8,692.1 968.6,701.4 964.4,710.2 961.8,715.3 959,720.5 956,725.6 
		952.8,730.6 949.5,735.6 946,740.6 942.2,745.4 938.3,750.2 934.2,754.9 929.8,759.4 925.2,763.9 920.5,768.1 915.5,772.2 
		910.4,776.1 905,779.9 899.5,783.4 894.2,786.5 894,787.8 892.8,794.4 891.4,801 889.7,807.5 887.8,813.8 885.6,820 883.2,826 
		880.6,832 877.8,837.9 874.8,843.6 871.6,849.1 868.2,854.6 864.6,859.9 860.8,865.1 856.9,870.1 852.7,875 848.4,879.7 
		843.9,884.3 836.8,891.1 829,896.9 824.2,900.2 819.4,903.5 814.3,906.6 809.2,909.6 803.9,912.5 798.5,915.2 792.9,917.8 
		787.2,920.2 781.4,922.4 775.4,924.4 769.3,926.2 763.1,927.8 756.8,929.1 750.4,930.2 744,931 737.5,931.6 731.3,931.8 
		730.5,932.9 726.4,938.2 722.1,943.4 717.6,948.3 712.9,953 708.1,957.5 703.2,961.8 698.1,965.9 692.9,969.7 687.6,973.4 
		682.2,976.8 676.6,980.1 671,983.1 665.2,985.9 659.4,988.5 653.5,990.9 647.4,993.1 641.3,995.1 631.8,997.8 622.2,999.3 
		616.5,1000.1 610.7,1000.7 604.8,1001.1 598.8,1001.4 592.8,1001.5 586.7,1001.4 580.6,1001.1 574.4,1000.5 568.2,999.8 562,998.8 
		555.8,997.5 549.5,996 543.4,994.3 537.2,992.3 531.1,990 525.1,987.5 519.5,984.8 518.3,985.4 512.2,988.2 506,990.8 499.7,993 
		493.4,995.1 487.1,996.8 480.7,998.3 474.4,999.6 468,1000.6 461.5,1001.3 455.1,1001.9 448.7,1002.2 442.3,1002.2 435.9,1002 
		429.5,1001.6 423.1,1001 416.8,1000.1 410.4,999.1 400.8,997 391.6,993.9 386.2,991.9 380.7,989.7 375.3,987.4 369.9,984.9 
		364.5,982.1 359.2,979.2 353.9,976.1 348.7,972.8 343.6,969.2 338.5,965.5 333.6,961.5 328.8,957.2 324.1,952.8 319.6,948.2 
		315.3,943.3 311.1,938.3 307.4,933.3 306,933.3 299.3,933 292.6,932.3 286,931.4 279.5,930.3 273.1,928.9 266.8,927.3 260.5,925.4 
		254.4,923.3 248.4,921 242.5,918.5 236.6,915.8 230.9,912.9 225.3,909.7 219.9,906.4 214.5,902.9 209.3,899.1 204.2,895.2 
		196.6,889 189.9,881.9 186,877.6 182.2,873.2 178.5,868.6 174.9,863.8 171.4,858.9 168,853.9 164.8,848.7 161.7,843.3 158.8,837.8 
		156.1,832.1 153.6,826.2 151.3,820.3 149.2,814.2 147.4,807.9 145.8,801.7 144.5,795.3 143.4,789.2 142.3,788.5 136.5,785.1 
		130.9,781.4 125.4,777.6 120.2,773.5 115.2,769.3 110.3,764.9 105.7,760.4 101.2,755.7 97,750.8 92.9,745.9 89,740.8 85.3,735.5 
		81.8,730.1 78.5,724.6 75.4,719 72.5,713.3 69.8,707.5 66,698.4 63.3,689.1 61.9,683.4 60.6,677.7 59.4,671.9 58.4,666.1 
		57.6,660.1 57,654.1 56.6,647.9 56.3,641.8 56.3,635.5 56.6,629.2 57.1,622.9 57.8,616.5 58.8,610.1 60.1,603.8 61.6,597.5 
		63.4,591.3 65.3,585.3 64.6,584.2 61,578.5 57.8,572.6 54.8,566.7 52,560.7 49.5,554.6 47.3,548.5 45.2,542.3 43.5,536 41.9,529.8 
		40.7,523.5 39.6,517.2 38.7,510.8 38.1,504.4 37.8,498 37.6,491.6 37.7,485.2 38.1,478.7 38.9,468.9 40.9,459.5 42.2,453.8 
		43.7,448.1 45.4,442.5 47.2,436.8 49.3,431.2 51.5,425.5 54,419.9 56.7,414.3 59.6,408.8 62.7,403.3 66.1,397.9 69.7,392.6 
		73.5,387.5 77.6,382.4 81.9,377.6 86.4,372.9 90.9,368.5 90.7,367.2 90.3,360.5 90.1,353.8 90.2,347.1 90.5,340.5 91.1,334 
		92,327.5 93.1,321.1 94.4,314.7 96,308.5 97.8,302.3 99.8,296.2 102,290.2 104.4,284.3 107,278.4 109.9,272.7 113,267 116.3,261.5 
		121.6,253.2 127.7,245.7 131.5,241.3 135.5,237 139.6,232.8 143.9,228.6 148.3,224.6 152.9,220.6 157.7,216.8 162.7,213.1 
		167.8,209.5 173.1,206.2 	"/>
	<path fill-rule="evenodd" clip-rule="evenodd" fill="#ED1C24" d="M927.3,543.7l-2.1,3.3l-2.2,3.3l-2.4,3.2l-2.5,3.1l-2.6,3
		l-2.8,2.9l-2.9,2.9l-3.1,2.8l-3.2,2.7l-3.3,2.6l-0.4,0.3l2.4,2.8l2.6,3.4l2.5,3.5l2.3,3.6l2.1,3.7l1.9,3.7l1.8,3.8l1.6,3.9l1.4,3.9
		l1.3,4l1.1,4l0.9,4l0.8,4.1l0.6,4.1l0.5,4.1l0.3,4.1l0.1,4.1l0,4.1l-0.2,4.1l-0.3,4.1l-0.5,4.1l-0.6,4.1l-0.8,4.1l-0.9,4.1l-1,4
		l-1.2,4l-1.6,4.6l-2.2,4.6l-1.9,3.8l-2,3.7l-2.1,3.6l-2.2,3.5l-2.2,3.4l-2.3,3.3l-2.4,3.2l-2.5,3.1l-2.6,3l-2.7,2.8l-2.8,2.7
		l-2.9,2.6l-3,2.5l-3.1,2.4l-3.2,2.2l-3.3,2.1l-3.4,2l-3.5,1.8l-3.6,1.7l-3.7,1.6l-3.7,1.4l-3.8,1.3l-3.9,1.2l-4,1.1l-4.1,0.9
		l-4.2,0.8l-0.5,0.1l0.8,3.6l0.8,4.2l0.6,4.2l0.4,4.2l0.2,4.2l0,4.2l-0.2,4.2l-0.4,4.2l-0.6,4.1l-0.7,4.1l-0.9,4.1l-1.1,4l-1.2,4
		l-1.4,3.9l-1.5,3.9l-1.7,3.8l-1.8,3.7l-1.9,3.7l-2.1,3.6l-2.2,3.5l-2.3,3.4l-2.4,3.3l-2.6,3.3l-2.7,3.2l-2.8,3.1l-2.9,3l-3.5,3.3
		l-4.1,3l-3.5,2.4L790,856l-3.5,2.2l-3.5,2.1l-3.6,1.9l-3.6,1.8l-3.6,1.7l-3.7,1.5l-3.7,1.4l-3.7,1.3l-3.8,1.1l-3.8,1l-3.8,0.8
		l-3.9,0.6l-3.9,0.5l-3.9,0.3l-3.9,0.2l-3.9,0l-4-0.1l-4-0.3l-4-0.5l-4-0.6l-4-0.8l-4-0.9l-4-1.1l-4.1-1.2l-0.4-0.1l-0.9,3.6
		l-1.3,4.1l-1.5,4l-1.6,3.9l-1.8,3.8l-2,3.7l-2.1,3.6l-2.3,3.5l-2.4,3.4l-2.5,3.3l-2.7,3.2l-2.8,3.1l-2.9,3l-3,2.8l-3.1,2.7
		l-3.2,2.6l-3.3,2.5l-3.4,2.3l-3.5,2.2l-3.6,2.1l-3.6,2l-3.7,1.8l-3.8,1.7l-3.9,1.6l-3.9,1.4l-4,1.3l-4.7,1.3l-5,0.8l-4.2,0.6
		l-4.2,0.4l-4.1,0.3l-4.1,0.2l-4,0.1l-4-0.1l-4-0.2l-3.9-0.3l-3.9-0.5l-3.9-0.6l-3.8-0.8l-3.8-0.9l-3.8-1.1l-3.7-1.2l-3.7-1.4
		l-3.6-1.5l-3.6-1.7l-3.5-1.8l-3.4-2l-3.4-2.1l-3.3-2.3l-3.3-2.4l-3.2-2.6l-3.1-2.7l-3.1-2.8l-3-3l-0.3-0.3l-2.5,2.7l-3,3l-3.2,2.9
		l-3.3,2.7l-3.4,2.5l-3.5,2.4l-3.6,2.2l-3.6,2.1l-3.7,1.9l-3.8,1.7l-3.8,1.6l-3.9,1.4l-3.9,1.3l-4,1.1l-4,1l-4.1,0.8l-4.1,0.6
		l-4.1,0.5l-4.1,0.3l-4.1,0.2l-4.1,0l-4.1-0.1l-4.1-0.3l-4.1-0.4l-4.1-0.6l-4.1-0.7l-4.7-1l-4.8-1.6l-4-1.5l-3.9-1.5l-3.8-1.6
		l-3.7-1.7l-3.6-1.8l-3.5-1.9l-3.4-2l-3.3-2.1l-3.2-2.2l-3.1-2.4l-3-2.5l-2.9-2.6l-2.8-2.7l-2.7-2.8l-2.6-2.9l-2.5-3l-2.4-3.1
		l-2.2-3.2l-2.1-3.3l-2-3.4l-1.9-3.6l-1.8-3.7l-1.6-3.7l-1.5-3.8l-1.4-3.9l-1.3-4l-0.1-0.4l-3.5,1.3l-4.1,1.3l-4.1,1.1l-4.2,0.9
		l-4.2,0.7l-4.2,0.5l-4.2,0.3l-4.2,0.1l-4.2,0l-4.2-0.2l-4.1-0.4l-4.1-0.6L287,874l-4-0.9l-4-1l-4-1.2l-3.9-1.3l-3.9-1.5l-3.8-1.6
		l-3.8-1.8l-3.7-1.9l-3.6-2l-3.5-2.2l-3.5-2.3l-3.4-2.4l-3.3-2.5l-3.7-3.1l-3.5-3.7l-2.8-3.1l-2.7-3.2l-2.6-3.2l-2.5-3.3l-2.4-3.3
		l-2.2-3.3l-2.1-3.4l-2-3.4l-1.8-3.5l-1.7-3.5l-1.5-3.6l-1.4-3.6l-1.3-3.7l-1.1-3.7l-1-3.8l-0.8-3.8l-0.6-3.9l-0.5-3.9l-0.3-4
		l-0.2-4l0-4l0.1-4.1l0.3-4.1l0.4-4.1l0.6-4.2l0.7-4.2l0.1-0.5l-3.7-0.5l-4.2-0.8l-4.2-1l-4.1-1.2l-4-1.3L178,742l-3.8-1.7l-3.8-1.8
		l-3.7-2l-3.6-2.1l-3.5-2.3l-3.4-2.4l-3.3-2.5l-3.2-2.7l-3.1-2.8l-3-2.9l-2.9-3l-2.7-3.1l-2.6-3.2l-2.5-3.3l-2.4-3.4l-2.3-3.5
		l-2.1-3.6l-2-3.6l-1.9-3.7l-1.7-3.8l-1.9-4.5l-1.4-4.9l-1.1-4.1l-0.9-4.1l-0.8-4l-0.7-4l-0.6-4l-0.4-4l-0.3-4l-0.1-4l0-3.9l0.1-3.9
		l0.3-3.9l0.5-3.9l0.6-3.9l0.8-3.8l0.9-3.8l1.1-3.8l1.2-3.7l1.4-3.7l1.5-3.7l1.7-3.6l1.9-3.6l2-3.5l2.2-3.5l2.3-3.4l2.4-3.4l2.6-3.4
		l0.3-0.4l-3-2.2l-3.4-2.7l-3.2-2.8l-3.1-2.9l-2.9-3.1l-2.8-3.2l-2.6-3.3l-2.5-3.4l-2.3-3.5l-2.2-3.6l-2-3.6l-1.9-3.7l-1.7-3.8
		l-1.6-3.8l-1.4-3.9l-1.3-3.9l-1.1-4l-1-4l-0.8-4.1l-0.7-4.1l-0.5-4.1l-0.4-4.1l-0.2-4.1l-0.1-4.2l0.1-4.2l0.2-4.2l0.4-4.8l1-4.9
		l1-4.1l1.1-4l1.2-4l1.3-3.9l1.4-3.8l1.5-3.7l1.6-3.7l1.7-3.6l1.8-3.5l2-3.4l2.1-3.3l2.2-3.2l2.3-3.1l2.5-3l2.6-2.9l2.7-2.8l2.8-2.7
		l2.9-2.6l3.1-2.5l3.2-2.4l3.3-2.3l3.4-2.2l3.5-2.1l3.6-2l3.7-1.9l3.9-1.8l0.4-0.2l-1.7-3.3l-1.8-3.9l-1.6-4l-1.4-4l-1.2-4.1l-1-4.1
		l-0.8-4.1l-0.6-4.1l-0.4-4.2l-0.3-4.2l-0.1-4.2l0.1-4.2l0.2-4.1l0.4-4.1l0.5-4.1l0.7-4.1l0.8-4.1l1-4l1.1-4l1.3-3.9l1.4-3.9
		l1.6-3.8l1.7-3.8l1.8-3.7l2-3.7l2.1-3.6l2.6-4.1l3.2-3.9l2.8-3.2l2.8-3.1l2.9-3l2.9-2.9l3-2.7l3-2.6l3.1-2.5l3.2-2.4l3.2-2.2
		l3.3-2.1l3.4-2l3.5-1.8l3.5-1.7l3.6-1.5l3.7-1.4l3.7-1.3l3.8-1.1l3.8-1l3.9-0.8l3.9-0.7l4-0.5l4-0.4l4.1-0.2l4.1-0.1l4.2,0.1
		l4.2,0.2l0.5,0l0.1-3.7l0.3-4.3l0.5-4.2l0.7-4.2l0.8-4.1l1-4.1l1.2-4l1.4-4l1.5-3.9l1.7-3.8l1.8-3.7l2-3.6l2.1-3.6l2.3-3.5l2.4-3.4
		l2.5-3.3l2.6-3.2l2.7-3.1l2.9-3l3-2.9l3.1-2.8l3.2-2.7l3.3-2.6l3.4-2.4l3.5-2.3l3.5-2.2l4.2-2.4l4.7-2l3.9-1.5l3.9-1.4l3.9-1.3
		l3.9-1.2l3.9-1l3.9-0.9l3.9-0.8l3.9-0.6l3.9-0.5l3.9-0.3l3.9-0.2l3.9,0l3.9,0.1l3.9,0.3l3.9,0.5l3.9,0.6l3.8,0.8l3.8,0.9l3.8,1.1
		l3.8,1.3l3.8,1.4l3.7,1.6l3.7,1.7l3.7,1.9l3.7,2l3.7,2.2l0.4,0.3l1.8-3.3l2.2-3.7l2.4-3.5l2.5-3.4l2.7-3.3l2.8-3.1l2.9-3l3-2.9
		l3.2-2.7l3.3-2.6l3.4-2.5l3.4-2.3l3.5-2.2l3.6-2l3.7-1.9l3.7-1.7l3.8-1.6l3.9-1.5l3.9-1.3l4-1.2l4-1l4.1-0.9l4.1-0.7l4.1-0.6
		l4.1-0.4l4.2-0.3l4.8-0.2l5,0.4l4.2,0.5l4.1,0.6l4.1,0.7l4,0.8l3.9,0.9l3.9,1l3.8,1.1l3.8,1.3l3.7,1.4l3.6,1.5l3.5,1.7l3.5,1.8
		l3.4,1.9l3.3,2.1l3.2,2.2l3.1,2.3l3.1,2.5l3,2.6l2.9,2.7l2.8,2.9l2.7,3l2.6,3.1l2.5,3.2l2.4,3.4l2.3,3.5l2.2,3.6l0.2,0.4l3.1-2.1
		l3.7-2.2l3.8-2l3.8-1.8l3.9-1.7l3.9-1.5l4-1.3l4-1.1l4.1-0.9l4.1-0.8l4.1-0.6l4.1-0.4l4.1-0.3l4.1-0.1l4.1,0l4.1,0.2l4.1,0.4
		l4.1,0.5l4.1,0.7l4.1,0.8l4,1l4,1.1l4,1.2l3.9,1.4l3.9,1.5l3.8,1.7l4.4,2.1l4.3,2.7l3.5,2.4l3.4,2.4l3.3,2.5l3.2,2.6l3.1,2.6l3,2.7
		l2.9,2.8l2.7,2.9l2.6,2.9l2.5,3l2.4,3.1l2.2,3.2l2.1,3.3l2,3.4l1.8,3.5l1.7,3.5l1.6,3.6l1.4,3.7l1.3,3.8l1.1,3.8l1,3.9l0.8,4l0.7,4
		l0.6,4.1l0.4,4.2l0.3,4.2l0,0.5l3.7-0.4l4.3-0.2l4.3,0l4.3,0.1l4.2,0.3l4.2,0.5l4.1,0.7l4.1,0.9l4,1.1l4,1.2l3.9,1.4l3.9,1.5
		l3.8,1.7l3.7,1.8l3.6,2l3.6,2.1l3.5,2.2l3.4,2.4l3.3,2.5l3.2,2.6l3.1,2.7l3,2.8l2.9,2.9l2.8,3l2.7,3.1l2.6,3.2l2.9,3.9l2.5,4.4
		l2,3.7l1.9,3.7l1.8,3.7l1.6,3.7l1.5,3.8l1.4,3.8l1.2,3.8l1.1,3.8l0.9,3.8l0.8,3.8l0.6,3.9l0.5,3.9l0.3,3.9l0.2,3.9l0,3.9l-0.1,3.9
		l-0.3,3.9l-0.5,3.9l-0.6,3.9l-0.8,3.9l-0.9,3.9l-1.1,3.9l-1.3,3.9l-1.4,3.9l-1.6,3.9l-1.7,3.9l-0.2,0.4l3.5,1.4l3.9,1.8l3.8,1.9
		l3.7,2.1l3.6,2.3l3.5,2.4l3.3,2.6l3.2,2.7l3.1,2.8l3,2.9l2.8,3l2.7,3.1l2.6,3.2l2.4,3.3l2.3,3.4l2.2,3.5l2.1,3.6l1.9,3.7l1.8,3.7
		l1.6,3.8l1.5,3.9l1.4,3.9l1.2,4l1.1,4l0.9,4l0.8,4.1l0.7,4.8l0.2,5.1l0,4.2l-0.1,4.2l-0.2,4.1l-0.3,4.1l-0.4,4l-0.6,4l-0.7,3.9
		l-0.8,3.9l-0.9,3.8l-1.1,3.8l-1.2,3.7l-1.4,3.7l-1.5,3.6l-1.7,3.5l-1.8,3.5L927.3,543.7L927.3,543.7z M517.4,117.9
		c41.9,3.1,68.8,21,86.3,62.9c26.5-30.4,70.6-33.3,104.7-16c35.6,22.2,51.1,50.6,47.2,95.8c37.6-14.6,78,3.4,100.2,34.5
		c21.2,36.2,21.8,68.5-2.7,106.7c40.1,4.6,67.5,39.2,72.7,77.1c1.9,41.9-12.6,70.8-52,93.2c33.3,22.7,41.5,66.1,28.5,102
		c-17.8,38-44.1,56.8-89.4,58.4c19,35.6,6.1,77.8-22.2,103.6c-33.4,25.4-65.4,29.9-106.3,10.2c0.3,40.3-30.8,71.7-67.8,81.4
		c-41.4,7-71.8-4-98.8-40.4c-18.5,35.8-60.6,49.2-97.8,40.6c-39.9-13.1-61.7-36.9-68.7-81.7c-33,23.1-76.5,15.4-105.5-9.5
		c-29.3-30.1-37.5-61.4-22.9-104.3c-40,5.1-74.9-21.9-89-57.5c-11.9-40.3-4.7-71.8,28.2-103c-37.8-14-56.1-54.2-52.1-92.2
		c8.2-41.2,29.2-65.7,72.8-78.1c-26.9-30-24.5-74.1-3.3-105.9c26.4-32.7,56.4-44.7,100.7-35.3c-9.9-39.1,12.7-77,46.3-95.3
		c38.5-16.7,70.7-13.3,105.6,15.6C441.5,141.5,479.1,118.5,517.4,117.9L517.4,117.9z"/>
	<path fill-rule="evenodd" clip-rule="evenodd" fill="#034EA2" d="M101.3,722.8l-3-4.6l-2.8-4.7l-2.6-4.7l-2.5-4.9l-2.3-5l-2.9-7
		l-2.1-7.3l-1.3-5l-1.1-5l-1-5.1l-0.9-5.1l-0.7-5.1l-0.5-5.2l-0.4-5.2l-0.2-5.2l0-5.3l0.2-5.3l0.4-5.3l0.6-5.3l0.8-5.3l1-5.3
		l1.3-5.2l1.5-5.2l1.7-5.1l1.9-5l2.1-5l2-4.3l-3.5-4.3l-3.4-4.6l-3.2-4.7l-2.9-4.8l-2.7-4.9l-2.5-5l-2.3-5l-2.1-5.1l-1.9-5.2
		l-1.7-5.2l-1.5-5.3l-1.3-5.3l-1.1-5.3l-0.9-5.4l-0.7-5.4l-0.5-5.4l-0.3-5.4l-0.1-5.4l0.1-5.5l0.3-5.4l0.7-7.6l1.6-7.5l1.2-5l1.3-5
		l1.5-4.9l1.6-4.9l1.8-4.9l1.9-4.8l2.1-4.8l2.3-4.7l2.4-4.7l2.6-4.6l2.8-4.5l3-4.4l3.2-4.3l3.4-4.2l3.5-4l3.7-3.9l3.9-3.7l4-3.6
		l4.2-3.4l3.8-2.9l-1.1-5.4l-0.9-5.6l-0.6-5.6l-0.4-5.6l-0.1-5.6l0.1-5.6l0.3-5.5l0.5-5.5l0.7-5.5l0.9-5.4l1.1-5.4l1.3-5.3l1.5-5.2
		l1.7-5.2l1.9-5.1l2.1-5l2.2-5l2.4-4.9l2.6-4.8l2.8-4.7l4.1-6.4l4.9-5.9l3.4-3.9l3.5-3.8l3.6-3.7l3.7-3.6l3.8-3.5l3.9-3.4l4.1-3.3
		l4.2-3.1l4.3-3l4.4-2.8l4.6-2.7l4.7-2.5l4.8-2.3l4.9-2.1l5-1.9l5.1-1.7l5.2-1.5l5.2-1.3l5.3-1.1l4.7-0.8l1.6-5.3l1.9-5.4l2.1-5.3
		l2.3-5.1l2.5-5l2.7-4.9l2.8-4.8l3-4.6l3.2-4.5l3.3-4.4l3.5-4.2l3.6-4.1l3.8-3.9l3.9-3.8l4-3.6l4.2-3.5l4.3-3.3l4.4-3.2l4.5-3
		l4.6-2.9l6.6-3.8l7.1-3l4.8-1.9l4.8-1.7l4.9-1.6l4.9-1.5l5-1.3l5.1-1.2l5.1-1l5.2-0.8l5.2-0.6l5.2-0.4l5.3-0.2l5.3,0l5.3,0.2
		l5.3,0.4l5.3,0.6l5.3,0.8l5.3,1.1l5.2,1.3l5.2,1.5l4.5,1.5l3.9-4l4.2-3.9l4.3-3.7l4.4-3.5l4.5-3.3l4.6-3.1l4.7-2.9l4.8-2.7l4.9-2.5
		l5-2.3l5-2.1l5.1-1.9l5.2-1.7l5.2-1.5l5.3-1.4l5.3-1.2l5.3-1l5.4-0.8l5.4-0.6l5.4-0.4l7.6-0.3l7.6,0.7l5.1,0.6l5.1,0.7l5.1,0.8
		l5.1,1l5,1.2l5,1.3l5,1.5l5,1.7l4.9,1.9l4.9,2.1l4.8,2.2l4.7,2.4l4.6,2.6l4.5,2.8l4.4,3l4.3,3.2l4.2,3.4l4,3.6l3.9,3.7l3.3,3.4
		l5.3-1.7l5.5-1.5l5.5-1.3l5.5-1l5.5-0.8l5.5-0.6l5.5-0.4l5.5-0.2l5.5,0.1l5.5,0.3l5.4,0.5l5.4,0.7l5.4,0.9l5.3,1.1l5.3,1.3l5.2,1.4
		l5.2,1.6l5.1,1.8l5.1,2l5,2.2l6.9,3.3l6.4,4.1l4.3,2.9l4.2,3l4.1,3.1l4,3.2l3.9,3.4l3.8,3.5l3.7,3.6l3.6,3.8l3.5,3.9l3.3,4.1
		l3.2,4.2l3,4.4l2.9,4.5l2.7,4.6l2.5,4.7l2.3,4.8l2.1,4.9l1.9,5l1.7,5.1l1.3,4.6l5.5,0.9l5.6,1.2l5.5,1.4l5.4,1.6l5.3,1.8l5.2,2.1
		l5.1,2.2l5,2.4l4.8,2.6l4.7,2.8l4.6,2.9l4.5,3.1l4.4,3.3l4.2,3.4l4.1,3.6l4,3.7l3.8,3.8l3.7,4l3.6,4.1l3.4,4.2l4.6,6.1l3.8,6.7
		l2.4,4.5l2.3,4.6l2.2,4.7l2.1,4.7l1.9,4.8l1.8,4.9l1.6,5l1.4,5l1.3,5.1l1.1,5.2l0.9,5.2l0.7,5.3l0.5,5.3l0.2,5.3l0,5.4l-0.2,5.4
		l-0.4,5.4l-0.6,5.3l-0.8,5.3l-0.9,4.7l4.4,3.4l4.4,3.7l4.2,3.8l4,4l3.8,4.1l3.6,4.2l3.4,4.3l3.3,4.5l3.1,4.6l2.9,4.7l2.7,4.7
		l2.5,4.8l2.3,4.9l2.2,5l2,5.1l1.8,5.1l1.6,5.2l1.4,5.3l1.2,5.3l1,5.4l1.2,7.5l0.3,7.6l0.1,5.1l-0.1,5.1l-0.2,5.1l-0.4,5.1l-0.5,5.1
		l-0.7,5.1l-0.9,5.1l-1.1,5.1l-1.3,5.1l-1.5,5.1l-1.7,5l-1.9,5l-2.1,4.9l-2.3,4.8l-2.5,4.8l-2.7,4.7l-2.9,4.6l-3,4.4l-3.2,4.3
		l-3,3.7l2.3,5l2.2,5.3l1.9,5.3l1.7,5.4l1.5,5.4l1.3,5.4l1,5.4l0.8,5.5l0.6,5.5l0.4,5.5l0.2,5.5l0,5.4l-0.2,5.4l-0.4,5.4l-0.6,5.4
		l-0.8,5.4l-1,5.3l-1.2,5.3l-1.4,5.3l-1.6,5.2l-2.5,7.2l-3.3,6.9l-2.3,4.6l-2.5,4.5l-2.6,4.4l-2.7,4.4l-2.9,4.3l-3,4.2l-3.2,4.1
		l-3.3,4l-3.5,3.9l-3.6,3.8l-3.8,3.7l-4,3.5l-4.1,3.4l-4.3,3.2l-4.4,3.1l-4.5,2.9l-4.7,2.7l-4.8,2.5l-4.9,2.3l-4.4,1.9l-0.3,5.6
		l-0.5,5.7l-0.8,5.6l-1,5.5l-1.2,5.5l-1.4,5.4l-1.6,5.3l-1.8,5.2l-2,5.1l-2.2,5l-2.4,4.9l-2.5,4.8l-2.7,4.7l-2.9,4.6l-3,4.5
		l-3.2,4.4l-3.4,4.3l-3.5,4.2l-3.7,4l-3.8,3.9l-5.5,5.3l-6.2,4.6l-4.2,3l-4.3,2.8l-4.4,2.7l-4.5,2.6l-4.5,2.5l-4.6,2.3l-4.7,2.2
		l-4.8,2l-4.9,1.9l-5,1.7l-5.1,1.5l-5.2,1.3l-5.2,1.1l-5.3,0.9l-5.3,0.7l-5.4,0.5l-5.4,0.2l-5.4,0l-5.4-0.2l-4.8-0.4l-2.8,4.8
		l-3.1,4.8l-3.3,4.6l-3.4,4.4l-3.6,4.3l-3.8,4.1l-3.9,3.9l-4,3.8l-4.2,3.6l-4.3,3.4l-4.4,3.3l-4.5,3.1l-4.6,2.9l-4.7,2.7l-4.8,2.6
		l-4.9,2.4l-4.9,2.2l-5,2l-5.1,1.9l-5.2,1.7l-7.3,2.1l-7.6,1.2l-5.1,0.7l-5.1,0.5l-5.1,0.4l-5.2,0.2l-5.2,0.1l-5.2-0.1l-5.2-0.3
		l-5.2-0.4l-5.2-0.6l-5.2-0.8l-5.2-1l-5.2-1.2l-5.1-1.4l-5.1-1.7l-5-1.9l-5-2.1l-4.9-2.3l-4.8-2.5l-4.7-2.7l-4.1-2.5l-4.7,2.9
		l-5,2.8l-5.1,2.6l-5.1,2.3l-5.2,2.1l-5.2,1.9l-5.3,1.7l-5.3,1.5l-5.4,1.3l-5.4,1.1l-5.4,0.8l-5.4,0.6l-5.4,0.4l-5.4,0.2l-5.4,0.1
		l-5.4-0.1l-5.4-0.3l-5.4-0.5l-5.4-0.7l-5.4-0.9l-7.5-1.6l-7.3-2.5l-4.8-1.8l-4.8-1.9l-4.7-2l-4.7-2.2l-4.6-2.3l-4.6-2.5l-4.5-2.6
		l-4.4-2.8l-4.3-3l-4.2-3.2l-4.1-3.3l-4-3.5l-3.9-3.7l-3.7-3.8l-3.6-4l-3.4-4.2l-3.2-4.3l-3.1-4.4l-2.9-4.5l-2.4-4.1l-5.5,0.4
		l-5.7,0.2l-5.7-0.1l-5.6-0.3l-5.6-0.5l-5.5-0.8l-5.4-1l-5.4-1.2l-5.3-1.4l-5.3-1.6L259,903l-5.1-1.9l-5-2.1l-4.9-2.3l-4.8-2.5
		l-4.7-2.7l-4.6-2.8l-4.5-3l-4.4-3.2l-4.3-3.3l-5.9-4.9l-5.3-5.6l-3.4-3.8l-3.3-3.9l-3.2-4l-3.1-4.1l-3-4.2l-2.9-4.3l-2.7-4.4
		l-2.6-4.5l-2.4-4.7l-2.3-4.8l-2.1-4.9l-1.9-5l-1.7-5.1l-1.5-5.1l-1.3-5.2l-1.1-5.3l-0.9-5.3l-0.7-5.3l-0.4-5.4l-0.2-4.8l-5.1-2.2
		l-5.1-2.5l-5-2.7l-4.8-2.9l-4.7-3.1l-4.5-3.2l-4.4-3.4l-4.2-3.5l-4.1-3.7l-3.9-3.8l-3.8-4l-3.6-4.1l-3.5-4.2l-3.3-4.3L101.3,722.8
		L101.3,722.8z M608.5,963.6l-4.7,0.4l-4.6,0.2l-4.6,0.1l-4.6-0.1l-4.6-0.2l-4.6-0.4l-4.6-0.6l-4.6-0.7l-4.6-0.9l-4.5-1.1l-4.5-1.3
		l-4.4-1.5l-4.4-1.6l-4.3-1.8l-4.2-2l-4.2-2.2l-4.1-2.3l-4-2.5l-3.9-2.7l-3.8-2.8l-1-0.8l-0.8,0.6l-4.1,3l-4.2,2.8l-4.3,2.6
		l-4.3,2.4l-4.4,2.3l-4.5,2.1l-4.5,1.9l-4.6,1.7l-4.7,1.5l-4.7,1.3l-4.7,1.1L465,963l-4.8,0.8l-4.8,0.6l-4.8,0.4l-4.8,0.2l-4.8,0
		l-4.8-0.1l-4.8-0.3l-4.8-0.5l-4.8-0.6l-4.8-0.8l-6.2-1.3l-6.1-2.1l-4.4-1.6l-4.4-1.7l-4.3-1.9l-4.2-2l-4.1-2.1l-4.1-2.2l-4-2.3
		l-3.9-2.5l-3.8-2.6l-3.7-2.8l-3.6-2.9l-3.5-3.1l-3.4-3.2l-3.2-3.3l-3.1-3.5l-3-3.6l-2.8-3.7l-2.7-3.9l-2.5-4l-2.4-4.1l-2.2-4.2
		l-2.1-4.3l-0.5-1.2l-1,0.2l-5,0.8l-5,0.6l-5,0.4l-5,0.1l-5-0.1l-4.9-0.3l-4.9-0.5l-4.9-0.7l-4.8-0.8l-4.8-1l-4.7-1.2l-4.6-1.4
		l-4.6-1.6l-4.5-1.7l-4.4-1.9l-4.4-2l-4.3-2.2l-4.2-2.4l-4.1-2.5l-4-2.7l-3.9-2.8l-3.8-2.9l-4.9-4l-4.4-4.7l-3.2-3.5l-3-3.6
		l-2.9-3.6l-2.8-3.7l-2.7-3.8l-2.6-3.9l-2.4-3.9l-2.3-4l-2.2-4.1l-2-4.2l-1.8-4.3l-1.7-4.3l-1.5-4.4l-1.3-4.5l-1.1-4.5l-1-4.6
		l-0.8-4.6l-0.6-4.7l-0.4-4.7l-0.2-4.7l0-4.7l0.2-4.8l0.1-1.3l-1-0.3l-4.8-1.6l-4.7-1.8l-4.6-2l-4.5-2.2l-4.4-2.4l-4.2-2.5l-4.1-2.7
		l-4-2.8l-3.9-3l-3.7-3.1l-3.6-3.3l-3.5-3.4l-3.3-3.5l-3.2-3.6l-3.1-3.7l-2.9-3.8l-2.8-3.9l-2.6-4l-2.5-4.1l-2.3-4.2l-2.2-4.3
		l-2-4.4l-2.4-5.8l-1.7-6.2l-1.2-4.6l-1-4.6l-0.9-4.6l-0.8-4.6l-0.6-4.6l-0.5-4.6l-0.3-4.6l-0.2-4.6l0-4.6l0.2-4.6l0.4-4.6l0.5-4.6
		l0.7-4.6l0.9-4.6l1.1-4.5l1.3-4.5l1.5-4.5l1.7-4.4l1.8-4.3l2-4.3l2.2-4.2l2.3-4.1l0.7-1.1l-0.7-0.7l-3.5-3.7l-3.3-3.8l-3.1-3.9
		l-3-4l-2.8-4.1l-2.6-4.2l-2.4-4.3l-2.2-4.4l-2-4.4l-1.9-4.5l-1.7-4.6l-1.5-4.6l-1.3-4.7l-1.1-4.7l-1-4.7l-0.8-4.8l-0.6-4.8
		l-0.5-4.8l-0.3-4.8l-0.1-4.8l0.1-4.8l0.2-4.8l0.5-6.3l1.3-6.3l1.1-4.6l1.2-4.5l1.3-4.5l1.4-4.4l1.6-4.4l1.7-4.3l1.9-4.2l2-4.2
		l2.2-4.1l2.3-4l2.5-3.9l2.6-3.8l2.8-3.7l2.9-3.6l3.1-3.5l3.2-3.4l3.4-3.3l3.5-3.1l3.6-3l3.8-2.9l3.9-2.7l4-2.6l1.1-0.7l-0.3-0.9
		l-1.4-4.9l-1.2-4.9l-1-4.9l-0.8-4.9l-0.5-4.9l-0.3-4.9l-0.1-4.9l0.1-4.9l0.3-4.9l0.5-4.8l0.6-4.8l0.8-4.8l1-4.7l1.2-4.7l1.3-4.6
		l1.5-4.6l1.7-4.5l1.8-4.5l2-4.4l2.1-4.3l2.3-4.2l2.5-4.2l3.4-5.3l4.1-4.9l3.1-3.6l3.2-3.5l3.2-3.3l3.3-3.2l3.4-3.1l3.5-3l3.6-2.9
		l3.7-2.8l3.8-2.6l3.9-2.5l4-2.3l4.1-2.2l4.2-2l4.3-1.9l4.4-1.7l4.4-1.5l4.5-1.3l4.6-1.1l4.6-1l4.7-0.8l4.7-0.6l4.7-0.4l1.3-0.1
		l0.2-1l1-5l1.2-4.9l1.4-4.8l1.6-4.7l1.8-4.6l2-4.5l2.2-4.4l2.3-4.3l2.5-4.2l2.7-4.1l2.8-4l2.9-3.8l3.1-3.7l3.2-3.6l3.3-3.5l3.5-3.4
		l3.6-3.2l3.7-3.1l3.8-3l3.9-2.8l4-2.7l4.1-2.5l5.5-3.1l5.9-2.5l4.4-1.7l4.4-1.6l4.4-1.5l4.5-1.3l4.5-1.2l4.5-1l4.5-0.9l4.6-0.7
		l4.6-0.6l4.6-0.4l4.6-0.2l4.6,0l4.6,0.2l4.7,0.4l4.7,0.5l4.6,0.7l4.6,0.9l4.6,1.1l4.5,1.3l4.5,1.5l4.4,1.6l4.4,1.8l1.2,0.6l0.6-0.8
		l3.2-3.9l3.4-3.8l3.5-3.6l3.6-3.4l3.8-3.2l3.9-3.1l4-2.9l4.1-2.7l4.2-2.6l4.2-2.4l4.3-2.2l4.4-2l4.5-1.9l4.5-1.7l4.6-1.5l4.6-1.4
		l4.7-1.2l4.7-1l4.7-0.9l4.8-0.7l4.8-0.5l4.8-0.3l6.3-0.2l6.4,0.6l4.7,0.5L534,85l4.6,0.8l4.6,0.9l4.5,1l4.5,1.2l4.4,1.3l4.4,1.5
		l4.3,1.6l4.3,1.8l4.2,2l4.1,2.1l4,2.3l4,2.5l3.9,2.6l3.8,2.8l3.6,3l3.5,3.1l3.4,3.3l3.3,3.4l3.2,3.5l3,3.7l0.8,1.1l0.9-0.4l4.7-2
		l4.7-1.8l4.8-1.6l4.8-1.3l4.8-1.1l4.8-0.9l4.9-0.7l4.9-0.5l4.9-0.3l4.9-0.1l4.9,0.1l4.8,0.2l4.8,0.4l4.8,0.6l4.8,0.8l4.7,0.9
		l4.7,1.1l4.7,1.3l4.6,1.5l4.5,1.6l4.5,1.8l4.4,1.9l5.7,2.7l5.4,3.5l3.9,2.6l3.8,2.7l3.7,2.8l3.6,2.9l3.5,3l3.4,3.1l3.3,3.2l3.2,3.4
		l3.1,3.5l2.9,3.6l2.8,3.7l2.7,3.8l2.5,3.9l2.4,4l2.2,4.1l2,4.2l1.9,4.3l1.7,4.4l1.5,4.5l1.3,4.5l1.2,4.6l1,4.7l0.2,1.3l1,0l5.1,0.4
		l5,0.6l4.9,0.8l4.9,1.1l4.8,1.2l4.7,1.4l4.6,1.6l4.6,1.8l4.5,2l4.4,2.1l4.3,2.3l4.2,2.5l4.1,2.6l4,2.7l3.9,2.9l3.8,3l3.6,3.2
		l3.5,3.3l3.4,3.4l3.3,3.6l3.2,3.7l3,3.8l3.8,5.1l3.2,5.6l2.2,4.1l2.1,4.2l2,4.2l1.9,4.3l1.7,4.3l1.6,4.4l1.4,4.4l1.3,4.5l1.1,4.5
		l0.9,4.5l0.8,4.6l0.6,4.6l0.4,4.6l0.2,4.7l0,4.7l-0.2,4.7l-0.4,4.7l-0.6,4.7l-0.7,4.7l-0.9,4.6l-1.1,4.6l-1.3,4.6l-0.4,1.3l0.9,0.5
		l4.3,2.7l4.1,2.9l4,3l3.8,3.2l3.7,3.3l3.5,3.5l3.4,3.6l3.2,3.7l3,3.8l2.9,3.9l2.7,4l2.6,4.1l2.4,4.2l2.2,4.3l2.1,4.4l1.9,4.4
		l1.8,4.5l1.6,4.5l1.4,4.6l1.3,4.7l1.1,4.7l0.9,4.8l1,6.2l0.2,6.4l0,4.7l-0.1,4.7l-0.2,4.7l-0.3,4.6l-0.5,4.6l-0.6,4.6l-0.8,4.6
		l-0.9,4.5l-1.1,4.5l-1.3,4.4l-1.4,4.4l-1.6,4.4l-1.8,4.3l-2,4.2l-2.2,4.1l-2.3,4.1l-2.5,4l-2.7,3.9l-2.8,3.8l-3,3.7l-3.1,3.6
		l-3.3,3.5l-0.9,0.9l0.5,0.8l2.5,4.4l2.3,4.5l2.1,4.5l1.9,4.6l1.7,4.7l1.5,4.7l1.3,4.7l1.1,4.8l0.9,4.8l0.7,4.8l0.5,4.8l0.4,4.8
		l0.2,4.8l0,4.8l-0.2,4.8l-0.4,4.8l-0.5,4.8l-0.7,4.8l-0.9,4.7l-1.1,4.7l-1.2,4.7l-1.4,4.6l-2,6l-2.8,5.8l-2.1,4.2l-2.2,4.1l-2.3,4
		l-2.5,3.9l-2.6,3.9l-2.7,3.8l-2.8,3.7l-2.9,3.6l-3.1,3.5l-3.2,3.4l-3.3,3.2l-3.5,3.1l-3.6,3l-3.7,2.8l-3.8,2.7l-4,2.5l-4.1,2.4
		l-4.2,2.2l-4.3,2l-4.3,1.9l-4.4,1.7l-4.5,1.5l-1.3,0.4l0.1,1l0.2,5.1l0,5l-0.2,5l-0.5,5l-0.7,4.9l-0.9,4.9l-1.1,4.8l-1.2,4.7
		l-1.4,4.7l-1.6,4.6l-1.8,4.5l-1.9,4.4l-2.1,4.4l-2.2,4.3l-2.4,4.2l-2.6,4.1l-2.7,4l-2.8,3.9l-3,3.8l-3.1,3.7l-3.3,3.6l-3.4,3.5
		l-4.6,4.3l-5.2,3.8l-3.8,2.7l-3.9,2.6l-4,2.5l-4,2.3l-4.1,2.2l-4.1,2.1l-4.2,1.9l-4.3,1.8l-4.3,1.6l-4.4,1.5l-4.5,1.3l-4.5,1.1
		l-4.5,1l-4.6,0.8l-4.6,0.6l-4.7,0.4l-4.7,0.2l-4.7,0l-4.7-0.2l-4.7-0.4l-4.7-0.5l-4.7-0.7l-1.3-0.2l-0.4,0.9l-2.2,4.6l-2.4,4.4
		l-2.5,4.3l-2.7,4.2l-2.9,4l-3,3.9l-3.2,3.8l-3.3,3.6l-3.4,3.5l-3.5,3.3l-3.7,3.2l-3.8,3l-3.9,2.9l-4,2.7l-4.1,2.6l-4.2,2.4
		l-4.3,2.3l-4.3,2.1l-4.4,2l-4.5,1.8l-4.5,1.6l-4.6,1.5l-6.1,1.7l-6.4,1l-4.7,0.6L608.5,963.6L608.5,963.6z"/>
	<path fill="#034EA2" d="M230.1,640v-67h13.5v29.8l27.3-29.8h18.2L263.9,599l26.6,40.9H273l-18.4-31.5l-11,11.2V640H230.1L230.1,640
		z M358,640h-14.7l-5.8-15.2h-26.8l-5.5,15.2h-14.4l26.1-67h14.3L358,640L358,640z M333.1,613.4l-9.2-24.9l-9,24.9H333.1
		L333.1,613.4z M408.1,615.3l13.1,4.2c-2,7.3-5.4,12.7-10,16.3c-4.7,3.5-10.6,5.3-17.8,5.3c-8.9,0-16.2-3-21.9-9.1
		c-5.7-6.1-8.6-14.4-8.6-24.9c0-11.2,2.9-19.8,8.7-26c5.8-6.2,13.3-9.3,22.7-9.3c8.2,0,14.9,2.4,20,7.3c3.1,2.9,5.3,7,6.9,12.3
		l-13.4,3.2c-0.8-3.5-2.4-6.2-5-8.2c-2.5-2-5.6-3-9.2-3c-5,0-9,1.8-12.1,5.4c-3.1,3.6-4.6,9.3-4.6,17.3c0,8.5,1.5,14.5,4.6,18.1
		c3,3.6,7,5.4,11.9,5.4c3.6,0,6.7-1.1,9.3-3.4C405.1,623.8,406.9,620.2,408.1,615.3L408.1,615.3z M432.8,640v-67h13.5v26.4h26.5
		v-26.4h13.5v67h-13.5v-29.3h-26.5V640H432.8L432.8,640z M500,640v-67h13.5v67H500L500,640z M535.9,640l-16-67h13.8l10.1,46l12.3-46
		h16.1l11.8,46.8l10.3-46.8h13.6l-16.3,67h-14.4l-13.3-50.1L550.6,640H535.9L535.9,640z M670.1,640h-14.7l-5.9-15.2h-26.8l-5.5,15.2
		h-14.4l26.1-67h14.3L670.1,640L670.1,640z M645.2,613.4l-9.2-24.9l-9.1,24.9H645.2L645.2,613.4z M677.6,640v-66.5h13.5v55.2h33.6
		V640H677.6L677.6,640z M794.9,640h-14.7l-5.9-15.2h-26.8L742,640h-14.4l26.1-67h14.3L794.9,640L794.9,640z M770,613.4l-9.2-24.9
		l-9,24.9H770L770,613.4z"/>
	<path fill="#ED1C24" d="M458.7,785.6c8.9,1.5,20.6,4,35.1,7.6c-1,0.8-2.6,2.3-4.6,4.4c-2,2.1-3.6,3.5-4.8,4.2
		c-1.2,0.7-2.7,1-4.5,0.8c-1.6-0.1-4.9-0.8-9.9-1.9c-5-1.1-9.5-2-13.8-2.6c-4.2-0.6-8.5-0.8-12.7-0.5c-4,2-7,3-8.9,3
		c-1.6,0-2.4-0.5-2.4-1.6c0-0.7,0.3-1.6,0.9-2.8c0.6-1.1,1.5-2.5,2.6-4c1.1-1.5,1.9-2.6,2.3-3.2c0.8-1.1,1.4-1.6,1.8-1.6
		c1.3-0.2,3.3-0.6,6.1-0.9c2.8-0.4,4.6-0.6,5.4-0.8l23.8-29.3c3.8-4.6,7.7-8.7,11.6-12.4c3.9-3.6,7.1-5.8,9.6-6.6
		c0.1-0.1,0.2-0.1,0.3-0.1c0.1,0,0.2,0,0.5,0c1.2,0,2.2,0.5,2.9,1.6c0.8,1,1.1,2.6,1.1,4.7v2.2c-0.2,1.2-1.7,4.3-4.4,9.3
		c-2.7,5-4.5,8.2-5.6,9.6c1.1,0,1.6,0.4,1.6,1.2c0,1-1.3,2.5-3.8,4.5c-2.5,2-4.4,3.4-5.5,4c-1.4,1-2.6,1.5-3.4,1.6
		c-1,0-1.6-0.8-1.7-2.5c0.1-2.2,1-5,2.5-8.4c1.6-3.4,3.6-6.6,6.1-9.7c3-3.7,4.1-5.5,3.2-5.5c-1.1,0-4.4,3.2-9.8,9.5L458.7,785.6
		L458.7,785.6z M524.4,775.4v-0.2c-5.1,1.8-9.1,3.3-12.1,4.6c-3,1.3-5.6,2.9-8,5c-2.4,2.1-3.4,4.4-3.1,7c0,1,0.5,1.6,1.6,1.8
		c1.8-0.1,4.9-2,9.1-5.8C516.1,784,520.3,779.8,524.4,775.4L524.4,775.4z M529.6,772.9c1.6,0.8,2.3,1.9,2.3,3.3c0,1.4-0.7,3-2.2,4.8
		c-3.4,4.1-5.1,7.2-5.2,9.2c0.1,1.2,0.8,1.9,2.2,2.1c2.4,0.3,6.6-2.2,12.8-7.4l0.7,3.7c-3.3,3.4-7,6.7-11.2,9.8
		c-4.2,3.1-7.3,4.5-9.2,4c-2.1-0.5-3.2-2-3.4-4.5c0.2-2.8,1.3-6.2,3.4-10.4l-0.2-0.2c-2.1,1.8-4.3,3.6-6.6,5.6
		c-2.3,1.9-4.3,3.5-6,4.7c-1.7,1.2-3.1,2-4.1,2.4c-1.3,0.4-2.9-0.6-4.9-3.1c-2-2.5-3-5-3-7.6c0-1.1,0.1-1.8,0.2-2.2
		c0.8-3.3,3-6.5,6.7-9.6c3.7-3.1,7.9-5.7,12.6-7.7c4.7-2,8.6-3.2,11.6-3.4h0.9c1.4,0,2.7,0.4,3.8,1.2c1.1,0.8,1.7,1.9,1.7,3.2
		C532.5,771.5,531.5,772.2,529.6,772.9L529.6,772.9z M556.3,777.5c-1.2,0.8-2.5,1.8-4,2.8c-1.4,1.1-2.5,1.9-3.3,2.5
		c-0.7,0.6-1.5,1.5-2.2,2.5c-0.7,1-1.2,2.2-1.3,3.4c0.4,2.7,2.6,4.3,6.7,4.8c5.1-0.2,11.5-3.7,19.2-10.5l1,3.7
		c-9,9.7-16.7,14.6-23.2,14.6c-3.4,0-5.9-1.4-7.5-4.2c-1.6-2.8-2.4-6-2.4-9.7c0-3.4,0.9-6.3,2.9-8.8c1.9-2.5,4.8-4.9,8.7-7.3
		c6.3-4,10.9-5.8,13.8-5.7c2.7,0,4.1,1.3,4.1,3.9c0,2-1.2,4.6-3.5,7.5c-2.3,2.8-4.3,4.3-6.1,4.6C557.7,781.4,556.8,780,556.3,777.5
		L556.3,777.5z M579.4,782.8c3.7-1.4,6.8-3.3,9.2-5.6c2.4-2.3,3.6-4,3.6-5.2c0-0.2,0-0.4,0-0.5c0-0.1-0.1-0.1-0.1-0.1
		c-0.3-0.4-1.4-0.1-3,0.7c-1.7,0.8-3.4,2.2-5.2,3.9C582,777.8,580.6,780.1,579.4,782.8L579.4,782.8z M579.2,787
		c-0.2,0.7-0.3,1.5-0.5,2.2c0,1.4,0.5,2.5,1.6,3.2c1,0.8,2.4,1.2,4,1.3c0.5-0.1,1-0.2,1.6-0.2c1.5-0.3,3-0.8,4.4-1.5
		c1.4-0.7,3.4-2,5.9-4c2.5-1.9,4.5-3.6,6.1-4.9l0.9,3.6c-4.4,5-8.6,8.7-12.5,11.1c-3.9,2.4-7.4,3.6-10.5,3.6c-2.9,0-5.3-1.1-7-3.3
		c-1.7-2.2-2.7-5-2.8-8.3c-0.2-3.4,0.8-6.9,2.9-10.6c2.1-3.7,5-6.8,8.6-9.3c3.6-2.5,7.4-3.8,11.4-4c4.5-0.2,6.7,1.4,6.7,4.6
		c0,1.9-0.7,3.7-2,5.4c-1.9,2.6-4.6,4.8-8,6.5C586.4,784.3,582.9,785.7,579.2,787L579.2,787z"/>
	<path fill-rule="evenodd" clip-rule="evenodd" fill="#ED1C24" d="M517.6,189.1c185.1,0,336,151,336,336.1c0,9.7-0.4,19.2-1.2,28.6
		H182.8c-0.8-9.4-1.2-19-1.2-28.6C181.6,340,332.5,189.1,517.6,189.1L517.6,189.1z M821.5,668.3
		c-48.9,103.3-149.1,177.9-267.3,190.8c32-14.1,54.4-46.2,54.4-83.3c0-50.1-40.9-91-91-91c-50.1,0-91,40.9-91,91
		c0,37.1,22.4,69.2,54.4,83.3c-118.2-12.9-218.3-87.5-267.3-190.8H821.5L821.5,668.3z"/>
	<path fill="#FFFFFF" d="M303.2,538.6V290.5h80.3c30.4,0,50.3,1.3,59.6,3.8c14.2,3.7,26.2,11.8,35.8,24.3
		c9.6,12.5,14.4,28.6,14.4,48.3c0,15.3-2.8,28.1-8.3,38.4c-5.5,10.4-12.5,18.5-21.1,24.5c-8.5,5.9-17.2,9.8-25.9,11.7
		c-11.9,2.4-29.3,3.6-52,3.6h-32.6v93.6H303.2L303.2,538.6z M353.3,332.5v70.4h27.4c19.8,0,33-1.3,39.6-3.9
		c6.6-2.6,11.8-6.6,15.7-12.2c3.7-5.5,5.7-12,5.7-19.3c0-9-2.7-16.5-8-22.4c-5.3-5.8-12-9.5-20.1-11c-6-1.2-18-1.7-36-1.7H353.3
		L353.3,332.5z M597.7,538.6L509,290.5h54.4l62.7,183.6l60.8-183.6H740l-88.8,248.1H597.7L597.7,538.6z"/>
</g>
</svg>
